<?xml version="1.0" encoding="utf-8"?>
<!-- Generator: Adobe Illustrator 25.1.0, SVG Export Plug-In . SVG Version: 6.00 Build 0)  -->
<svg version="1.1"
	 id="svg2" xmlns:inkscape="http://www.inkscape.org/namespaces/inkscape" xmlns:sodipodi="http://sodipodi.sourceforge.net/DTD/sodipodi-0.dtd" xmlns:svg="http://www.w3.org/2000/svg"
	 xmlns="http://www.w3.org/2000/svg" xmlns:xlink="http://www.w3.org/1999/xlink" x="0px" y="0px" viewBox="0 0 223 46"
	 style="enable-background:new 0 0 223 46;" xml:space="preserve">
<style type="text/css">
	.st0{fill:#1D1D1B;}
</style>
<sodipodi:namedview  bordercolor="#000000" borderopacity="0.25" id="namedview4" inkscape:deskcolor="#d1d1d1" inkscape:pagecheckerboard="0" inkscape:pageopacity="0.0" inkscape:showpageshadow="2" pagecolor="#ffffff" showgrid="false">
	</sodipodi:namedview>
<g>
	<path id="path22" class="st0" d="M34.1,38.2c-6,0-10.4-2.7-10.4-6.3c0-2.2,1.6-4,3.6-4c1.9,0,3.3,1.5,3.3,3.4
		c0,1.2-0.6,2.3-1.5,2.9c-0.3,0.3-0.5,0.3-1.7,0.5c0.4,0.6,2.5,1.6,5.4,1.6c3.3,0,6-1.1,8.9-3.6c1.6-1.4,3.7-3.7,7.2-8
		c5.8-7.1,9.5-10.7,13.7-13.3c4.1-2.7,9-4.3,12.9-4.3h1.1c0.3,0,0.5,0.2,0.6,0.4l0.1,0.3c0.1,0.2,0,0.4-0.1,0.5
		c-0.1,0.2-0.3,0.2-0.4,0.3c-5.1,0.5-9.2,3.8-17.7,14.2c-5.3,6.6-6.9,8.2-10.8,10.8C43.6,36.7,39,38.2,34.1,38.2"/>
	<path id="path26" class="st0" d="M41.4,23.1c-3.7,0-6.3-2.4-6.3-5.9C35,8.3,47.3,0,60.2,0c2.3,0,4.9,0.3,12,1.3
		c4.3,0.6,7.9,1,9.9,1c2.1,0,3.3-0.5,5.3-2.1C87.5,0,87.6,0,87.8,0c0.1,0,0.2,0,0.3,0.1l0.1,0.1c0.2,0.1,0.3,0.2,0.3,0.4
		c0,0.2,0,0.4-0.1,0.5c-3,4.3-5.8,5.8-10.3,5.8c-2.2,0-3.1-0.1-11.7-1C59,5,55.6,4.7,52.8,4.7c-8.4,0-16,5.9-16,12.5
		c0,2.4,1.7,4.1,4.2,4.1c1.4,0,3-0.6,4.1-1.5c2.8-2.3,5-6.3,5-9c0-0.8-0.2-1.4-0.8-2.6c-0.1-0.2-0.1-0.4,0-0.5s0.2-0.3,0.4-0.3
		l0.4-0.1c0,0,0.1,0,0.1,0c0.2,0,0.4,0.1,0.5,0.3C51.7,8.9,52,10,52,11.7C52,17.8,47,23.1,41.4,23.1"/>
	<path id="path30" class="st0" d="M82,30.5c-0.1,0-0.2,0-0.3-0.1c-0.2-0.2-0.3-0.4-0.2-0.7c0.2-0.5,0.4-1,0.7-1.5
		c0,0,0.1-0.1,0.1-0.1c0.1-0.1,0.5-0.5,0.6-0.6c0.1-0.1,0.3-0.2,0.4-0.2c0,0,0,0,0,0c0.2,0,0.3,0.1,0.4,0.2l0.3,0.4
		c0.2,0.2,0.2,0.6,0,0.8c-0.5,0.6-1.1,1.1-1.6,1.7C82.3,30.5,82.1,30.5,82,30.5"/>
	<path id="path34" class="st0" d="M69.7,38c-2.2,0-3.9-1.7-3.9-4c0-0.1,0-0.3,0-0.4c-2.9,2.6-5.8,4.2-7.7,4.2c-2.3,0-3.8-1.6-3.8-4
		c0-1.9,1-3.9,3.1-6.2l5.9-6.6c0.1-0.1,0.3-0.2,0.4-0.2h6c0.2,0,0.4,0.1,0.5,0.4c0.1,0.2,0.1,0.5-0.1,0.6l-10,11.2
		c-2.1,2.3-2.3,2.6-2.3,2.9c0,0.1,0,0.3,0.4,0.3c1.6,0,6.7-3.5,10.4-7.6l6.8-7.6c0.1-0.1,0.3-0.2,0.4-0.2h6c0.2,0,0.4,0.1,0.5,0.4
		c0.1,0.2,0.1,0.5-0.1,0.6l-11,12.1c-0.8,0.9-1.7,1.9-2,2.4c0.1,0,0.3,0.1,0.5,0.1c1.7,0,3.9-1.1,7-3.5c1.9-1.4,3.5-2.8,5.3-4.6
		c0.1-0.1,0.3-0.2,0.4-0.2c0.1,0,0.3,0,0.4,0.1c0.2,0.2,0.3,0.5,0.2,0.8c-0.3,0.5-0.5,0.9-0.6,1.3c0,0.1-0.1,0.2-0.1,0.2
		c-1.4,1.4-2.8,2.6-4.5,3.8C74.5,36.8,72,38,69.7,38"/>
	<path id="path38" class="st0" d="M82,30.5c-0.1,0-0.2,0-0.3-0.1c-0.2-0.2-0.3-0.4-0.2-0.7c0.2-0.5,0.4-1,0.7-1.5
		c0,0,0.1-0.1,0.1-0.1c0.1-0.1,0.5-0.5,0.6-0.6c0.1-0.1,0.3-0.2,0.4-0.2c0,0,0,0,0,0c0.2,0,0.3,0.1,0.4,0.2l0.3,0.4
		c0.2,0.2,0.2,0.6,0,0.8c-0.5,0.6-1.1,1.1-1.6,1.7C82.3,30.5,82.1,30.5,82,30.5 M103.2,30.6c-0.2,0-0.3-0.1-0.4-0.2
		c-0.2-0.2-0.2-0.5-0.1-0.7c0.2-0.4,0.4-0.7,0.6-1c0.1-0.1,0.1-0.1,0.2-0.2c0.3-0.2,0.6-0.3,0.9-0.6c0.1-0.1,0.2-0.1,0.3-0.1
		c0,0,0.1,0,0.1,0c0.2,0,0.3,0.2,0.4,0.3l0.2,0.4c0.1,0.3,0.1,0.6-0.2,0.7c-0.6,0.5-1.2,0.9-1.8,1.2
		C103.4,30.5,103.3,30.6,103.2,30.6"/>
	<path id="path42" class="st0" d="M113.6,2.6c-2.1,0-6.3,4.7-9.8,8.8c-1.3,1.6-2.5,3-3.5,4.1L100,16c-0.8,0.9-1.5,1.7-2.3,2.6
		c2.3-1.1,4.4-2.2,6.2-3.3c6-3.8,10.8-8.9,10.8-11.6C114.6,3,114.3,2.6,113.6,2.6 M86.1,38c-1.7,0-3-0.7-4-2
		c-0.8-1.2-1.2-2.4-1.2-3.6c0-0.9,0.2-1.7,0.5-2.6c0-0.1,0.1-0.2,0.1-0.2c0.2-0.2,0.4-0.4,0.6-0.6c-0.1-0.2-0.2-0.4-0.1-0.7
		c1.6-3,5.3-7.2,13.4-15.2c3.6-3.5,7.5-6.6,11.4-9.3c3.1-2.1,5-3,6.6-3c1.7,0,2.9,1.1,2.9,2.8c0,5.2-9.9,13.5-21.2,17.8
		c-1,1.3-1.3,1.7-4.1,4.9c-3.9,4.5-6.3,7.5-6.3,8.8c0,0.8,0.8,1.1,1.6,1.1c2.1,0,6.3-2.5,9.8-5.8c-0.9-0.8-1.3-1.6-1.3-2.6
		c0-2.9,3.8-7,6.5-7c1.2,0,2.2,1,2.2,2.3c0,1.7-1.7,4.3-4.1,6.6c0.1,0,0.2,0,0.4,0c1.2,0,2.4-0.4,3.7-1.2c0.1-0.1,0.2-0.1,0.3-0.1
		c0.2,0,0.3,0.1,0.4,0.2c0.2,0.2,0.2,0.5,0.1,0.7c-0.2,0.3-0.3,0.5-0.5,0.9c-0.1,0.1-0.1,0.2-0.3,0.3c-1.2,0.7-2.5,1-3.8,1
		c-0.7,0-1.2-0.1-1.9-0.3C93.2,35.4,88.9,38,86.1,38"/>
	<path id="path46" class="st0" d="M118.4,22.3c-1.4,0-4.4,3.2-7.2,6.3c-2.7,3-4.1,4.6-4.4,5c-0.6,0.7-0.8,1.3-0.8,1.7
		c0,0.9,1.2,1,1.7,1c2.6,0,7-2.8,10.7-6.8c-0.9-0.8-1.5-1.6-1.5-3c0-1.6,0.7-3,2-4.1C118.7,22.3,118.6,22.3,118.4,22.3 M107.4,38
		c-3,0-5.6-2.4-5.6-5.3c0-0.9,0.3-1.9,0.8-3c0.2-0.4,0.4-0.7,0.6-1c1.2-2,3.1-4,5.3-5.6c3-2,5.9-3.1,8.5-3.1c1.7,0,2.7,0.4,3.6,1.4
		c0.5-0.2,0.8-0.2,1.1-0.2c1.3,0,2.3,1,2.3,2.4c0,1.3-1.1,3.5-2.6,5.3c0.4,0.1,0.7,0.2,1.2,0.2c1.3,0,2.2-0.4,3.5-1.4l0.3-0.2
		c0.1-0.1,0.2-0.1,0.4-0.1c0,0,0.1,0,0.1,0c0.2,0,0.3,0.1,0.4,0.3l0.3,0.5c0.2,0.2,0.1,0.6-0.1,0.8c-0.8,0.7-1.6,1.2-2.3,1.5
		c0,0,0,0-0.1,0c-0.8,0.3-1.6,0.5-2.6,0.5c-0.9,0-1.5-0.1-2.4-0.5C115.8,35,110.9,38,107.4,38"/>
	<path id="path50" class="st0" d="M136.9,38.2c-2,0-3.3-1.6-3.3-4.1c0-2,0.5-2.9,2.9-5.5l4.1-4.4c0.6-0.7,1-1.1,1.2-1.4
		c-2.3,0.4-9.8,6.1-14.6,11.5l-2.8,3.2c-0.1,0.1-0.3,0.2-0.4,0.2h-5.6c-0.2,0-0.5-0.1-0.5-0.4c-0.1-0.2,0-0.5,0.1-0.6l14.4-15.4
		c0.1-0.1,0.3-0.2,0.4-0.2h5.5c0.2,0,0.4,0.1,0.5,0.3c0.1,0.2,0.1,0.5-0.1,0.6l-0.6,0.7c1.9-1.2,3.2-1.7,4.5-1.7
		c0.8,0,2.7,0.3,2.7,3.4c0,1.1-0.3,2.4-0.8,3.4c-0.4,0.7-0.6,1-2.7,3.2l-3.5,3.8c-1,1.1-1.3,1.6-1.4,1.8c0,0,0,0,0,0
		c0,0,0.1,0,0.1,0c1.7,0,7.7-4.1,12.1-8.7c0.1-0.1,0.3-0.2,0.4-0.2c0.1,0,0.2,0,0.3,0.1l0.4,0.2c0.2,0.1,0.3,0.2,0.3,0.4
		c0,0.2,0,0.4-0.1,0.5c-1.6,1.9-3.4,3.5-6.9,6.1C140.2,37.4,138.6,38.2,136.9,38.2"/>
	<path id="path54" class="st0" d="M162.9,22.2c-1,0-1.6,0.4-5,4l-5,5.5c-0.9,0.9-3.1,3.5-3.1,4.1c0,0.4,0.5,0.4,0.6,0.4
		c1.5,0,3.2-1.2,7.2-5.5l3.1-3.3c2.6-2.8,3.1-3.6,3.1-4.3C163.8,22.5,163.5,22.2,162.9,22.2 M160.6,38c-2.1,0-3.6-1.6-3.6-3.8
		c0-0.1,0-0.2,0-0.3c-0.4,0.4-0.6,0.7-1,1.1c-2,1.9-4,3-5.7,3c-2.1,0-3.6-2.1-3.6-4.9c0-3.4,2.3-6.9,6.2-9.5
		c2.8-1.9,6.8-3.3,9.4-3.3c1.5,0,2.5,0.7,3,1.9l1.3-1.4c0.1-0.1,0.3-0.2,0.4-0.2h5.9c0.2,0,0.4,0.1,0.5,0.4c0.1,0.2,0.1,0.5-0.1,0.6
		l-11.7,13.1c-0.9,1-1.1,1.5-1.2,1.6h0c0,0,0.1,0,0.2,0c1,0,3-0.5,6.5-3.1c2.5-1.7,4.9-3.9,6.4-5.6c0.1-0.1,0.3-0.2,0.4-0.2
		c0,0,0,0,0,0c0.2,0,0.3,0.1,0.4,0.2l0.4,0.4c0.2,0.2,0.2,0.6,0,0.8c-1.6,2-4.8,4.8-7.8,6.7C164.6,37.2,162.6,38,160.6,38"/>
	<path id="path58" class="st0" d="M172.8,30.8c-0.2,0.4-0.4,0.9-0.4,1.3c0,1.6,1.5,3.5,2.8,3.5c0.5,0,1.1-0.4,2.2-1.4l3.4-3.4
		c2.5-2.4,4-4.6,4-6c0-0.8-0.3-1.6-0.7-2.3c-2,1.7-4.3,3.4-6.7,5.1c0.9,0.5,1.5,1.4,1.5,2.5c0,1.5-1.6,3-3.2,3
		C174.2,33.1,173.1,32.1,172.8,30.8 M177.6,38c-3.8,0-6.9-2.6-6.9-5.9c0-1.7,0.8-3,2.3-3.9c0.3-0.2,0.4-0.2,1.4-0.8
		c2.6-1.4,6.2-4,8.8-6.2c-0.1-0.4-0.2-0.6-0.2-0.9c0-1.6,2.2-4.1,3.7-4.1c0.8,0,1.6,0.7,1.6,1.6c0,1.1-1,2.1-2.9,3.8
		c2,2.6,3.2,5.3,3.2,7.6C188.5,33.4,182.9,38,177.6,38"/>
	<path id="path62" class="st0" d="M205.4,22.2c-1,0-1.6,0.4-5,4l-5,5.5c-0.9,0.9-3.1,3.5-3.1,4.1c0,0.4,0.5,0.4,0.6,0.4
		c1.5,0,3.2-1.2,7.2-5.5l3.1-3.3c2.6-2.8,3.1-3.6,3.1-4.3C206.3,22.5,206,22.2,205.4,22.2 M203.1,38c-2.1,0-3.6-1.6-3.6-3.8
		c0-0.1,0-0.2,0-0.3c-0.4,0.4-0.6,0.7-1,1.1c-2,1.9-4,3-5.7,3c-2.1,0-3.6-2.1-3.6-4.9c0-3.4,2.3-6.9,6.2-9.5
		c2.8-1.9,6.8-3.3,9.4-3.3c1.5,0,2.5,0.7,3,1.9l1.3-1.4c0.1-0.1,0.3-0.2,0.4-0.2h5.9c0.2,0,0.4,0.1,0.5,0.4c0.1,0.2,0.1,0.5-0.1,0.6
		l-11.7,13.1c-0.9,1-1.1,1.5-1.2,1.6h0c0,0,0.1,0,0.2,0c1,0,3-0.5,6.5-3.1c2.5-1.7,4.9-3.9,6.4-5.6c0.1-0.1,0.3-0.2,0.4-0.2
		c0,0,0,0,0,0c0.2,0,0.3,0.1,0.4,0.2l0.4,0.4c0.2,0.2,0.2,0.6,0,0.8c-1.6,2-4.8,4.8-7.8,6.7C207.1,37.2,205.1,38,203.1,38"/>
	<path id="path66" class="st0" d="M0,46c1-1.4,2-2.6,2.9-4c71.4,0.1,142.8,0.1,214.1,0c-0.3,1.4-0.7,2.6-1,4H0z"/>
	<path id="path70" class="st0" d="M33.9,13.4c-0.4,1.2-0.6,2.5-0.6,3.7c0,0.1,0,0.2,0,0.3H18.7c1-1.4,2-2.6,2.9-4
		C25.8,13.4,29.9,13.4,33.9,13.4"/>
	<path id="path74" class="st0" d="M39.6,13.4c2.7,0,5.4,0,8.1,0c-0.6,1.3-1.5,2.8-2.7,4h-6.5c0-0.1,0-0.2,0-0.3
		C38.5,15.9,38.9,14.6,39.6,13.4"/>
	<path id="path78" class="st0" d="M53.5,13.4c1.1,0,2.3,0,3.4,0c-1.3,1.1-2.6,2.4-4,4h-0.6C52.9,16.2,53.3,14.8,53.5,13.4"/>
	<path id="path82" class="st0" d="M70.1,13.5c7.6,0,15.1,0,22.6,0c-1.4,1.5-2.7,2.8-3.9,4H65.9C67.4,15.8,68.8,14.5,70.1,13.5
		L70.1,13.5z"/>
	<path id="path86" class="st0" d="M223,13.4c-0.3,1.4-0.7,2.6-1,4h-32c-0.1-1.7-1.5-3.1-3.3-3.1c-1.6,0-3.4,1.4-4.5,3.1h-75.5
		c1.9-1.2,3.7-2.6,5.2-3.9C147.9,13.5,183.5,13.5,223,13.4"/>
</g>
</svg>
